<svg id="Capa_1" data-name="Capa 1" xmlns="http://www.w3.org/2000/svg" viewBox="0 0 1280 100"><defs><style>.cls-1{fill:#1d1d1b;}</style></defs><title>graphic</title><path class="cls-1" d="M139.15,47.19A127.22,127.22,0,0,0,184.45,12a2.58,2.58,0,0,0,0-3.54,140.28,140.28,0,0,0-45.31-33.73l-1.92,4.57A734.34,734.34,0,0,1,310,66.4L312,61.84a123.62,123.62,0,0,1-69.54-38.93L240,27.09A1891.87,1891.87,0,0,1,450,77.91q29.49,9,58.67,18.86c2.21.75,3.73-1.85,2.82-3.67L434.15-61.83c-1.08-2.16-4.89-1.21-4.66,1.26,5.74,62.09,11.38,124.71,3.88,186.92l4.66-1.27C414.51,71.84,408,11.5,418.94-45.64,424.16-73,433-100.93,447-125.09c6.54-11.21,15.46-22.39,27.9-27.26,11.1-4.34,25.52-4,34.43,4.82,10.38,10.23,11,28.76,10,42.34-1,15-5.41,29.73-11.38,43.5-10.89,25.12-26.78,48.34-43.89,69.62A423,423,0,0,1,348.74,107.2c-50.07,29.38-106.11,48.52-163.85,55l.67,4.91a1282,1282,0,0,1,394.07-9.18c18.59,2.46,37.11,5.37,55.58,8.61,14.76,2.59,30.27,4.87,44.13-2.32,1.81-.95,1.41-3.29,0-4.32-56.11-40.79-120.89-69-188.63-83.7A525.58,525.58,0,0,0,285.77,72.5,491,491,0,0,0,175,106.59a2.52,2.52,0,0,0,0,4.32c27.34,11.82,58,12.44,87.27,15l99.05,8.61,196.1,17.05,99.06,8.62,49.53,4.3c13.69,1.19,28.31,3.07,41.44-2.16,1.93-.77,3.85-1.31,4.85-3.18,1.17-2.19,1.23-6,1.65-8.42q1.38-8.06,2.1-16.21A198.55,198.55,0,0,0,755.9,99a218.48,218.48,0,0,0-16.28-64.62c-20.1-47.73-56.75-88.59-104-110.6-2.08-1-4.91,1.14-3.42,3.42A601.22,601.22,0,0,0,817.14,108a593.43,593.43,0,0,0,65,35c1.31.6,3.38.24,3.67-1.49A227.61,227.61,0,0,0,860.41-5.82a2.53,2.53,0,0,0-4.32,0c-27.25,43.31-36.51,94.79-61.3,139.3-11.69,21-26.93,40.51-47.41,53.56-11.27,7.18-23.68,12.31-36.41,16.29-13.39,4.19-27.27,7.51-41.33,8.15-26.39,1.21-56.44-9.58-65.49-36.79l-.64,2.43c25.2-31.33,60.56-52.55,98.78-64.14,43-13,88.69-13.5,132.92-7.22,26.61,3.77,52.83,9.91,78.7,17.11l1.33-4.82A1773.48,1773.48,0,0,1,620.5,48.18q-40.37-13.3-80-28.55l-1.33,4.82L777.28,72.81l67.48,13.7c2.72.55,4.44-3.05,1.93-4.57C792.76,49.11,734,25.51,674.69,4.32c-17-6.08-34.09-12-51.16-17.87L622.2-8.73,793.85,19.73,879.67,34l22,3.63c6.2,1,13,2.94,19.29,2.41,9.89-.84,13.75-9.46,15.35-18.11C942.07-9.46,943.39-42,942-73.79a2.52,2.52,0,0,0-4.92-.66,664.81,664.81,0,0,0-35,135.7c-.21,1.44.62,3.33,2.41,3.16C951.87,60.1,988.16,100,1016,132.93c1.63,1.93,4.89-.13,4.18-2.43l-50-161.91-4.57,1.92a487.64,487.64,0,0,1,59.71,103.88l3.07-3.08c-30-7.44-54-27.95-81.8-40.52C932.56,24.47,918,20.64,902.59,20.63c-18,0-35.67,4.34-53.1,8.39-18.47,4.28-36.94,7.54-55.92,8.42a322.85,322.85,0,0,1-53.74-2.21c-36.75-4.46-72.7-14.4-107.64-26.44-6-2-14.87-6.65-20.23-.94-2.49,2.64-2.92,6.54-3.6,9.93l-3.2,15.79-13,64.15,3.67-1.49A404.54,404.54,0,0,1,540.71,58Q528.34,47.8,516.8,36.59c-7.32-7.1-13.84-15.84-22-21.91s-17.67-5.22-27.08-2.6c-11.09,3.09-22.08,6.5-33.21,9.44Q399.95,30.64,364.76,37A898,898,0,0,1,223.45,51.12q-35.7.74-71.39-1.37c-9.78-.58-20-.7-29.42-3.53-9.61-2.87-15-8.64-17.25-18.37-1.6-7.09-2.4-16-9.46-20-9.27-5.25-19.46,2.66-26.87,7.64A558.62,558.62,0,0,0,8.8,62.41c-2,1.76.15,4.68,2.43,4.18a256.31,256.31,0,0,1,94.26-2.91c3.15.49,4.51-4.32,1.33-4.82A263.08,263.08,0,0,0,9.9,61.77L12.34,66A548.94,548.94,0,0,1,66.17,23.5c6.63-4.58,21.55-18.09,29.35-9.65,5,5.36,4.29,14.89,6.8,21.44,5.86,15.28,23.93,17.65,38.19,18.7q34.65,2.53,69.43,2.31A907.23,907.23,0,0,0,345.16,45.35Q379.48,40,413.32,32q16.9-4,33.65-8.66c10.5-2.92,22-8.15,32.95-8.38,12.65-.27,20.85,12.76,28.9,20.81q12.6,12.63,26.3,24.1a411.69,411.69,0,0,0,58.2,40.71,2.52,2.52,0,0,0,3.67-1.5q5.49-27.14,11-54.28c1.87-9.21,3.69-18.43,5.6-27.63.47-2.29.66-3.55,2.3-5.35,2.19-2.39,4.3-1.73,7.29-.84,4.12,1.22,8.14,2.83,12.2,4.21,32.77,11.08,66.35,20.09,100.7,24.59,34.12,4.48,68.66,4,102.38-3.13,17.8-3.79,35.45-8.93,53.64-10.51a100.59,100.59,0,0,1,47.48,7.09c30.17,12.32,55.32,35,87.41,42.93,1.64.41,3.85-1.21,3.07-3.07A492.11,492.11,0,0,0,969.84-32c-1.58-2.1-5.48-1-4.57,1.93l50,161.91,4.18-2.43c-28.64-33.9-66.24-74.43-115-70l2.41,3.17a664.19,664.19,0,0,1,35-135.7L937-73.79A458.49,458.49,0,0,1,933.4,7.68c-.77,5.63-1.35,11.46-2.84,17-2.25,8.29-7.37,11.2-15.91,10.06-13.25-1.77-26.44-4.37-39.64-6.56L715.34,1.67,623.53-13.55a2.5,2.5,0,0,0-1.33,4.82C681.65,11.79,741.36,32.39,797.7,60.6q23.74,11.88,46.46,25.65l1.93-4.56L607.93,33.33l-67.48-13.7a2.5,2.5,0,0,0-1.33,4.82,1773.46,1773.46,0,0,0,291,84q41.7,8.24,83.75,14.46c3.1.46,4.52-3.93,1.33-4.82C862.35,103.33,807.12,92.91,752,98.2c-45,4.32-89.67,19.73-125.08,48.32a175.14,175.14,0,0,0-25,24.57c-1,1.18-2.67,2.63-2.76,4.26s1.24,4,1.85,5.35a51.58,51.58,0,0,0,8,12.7c14.34,17.07,37.08,23.75,58.73,23.15,25-.69,51.49-8.56,73.55-20.21C761.74,185.56,778,169,790.68,149.89,822,102.68,830.3,44.56,860.41-3.29h-4.32A222.06,222.06,0,0,1,881,140.25l3.67-1.5A596.75,596.75,0,0,1,680.31-16.64a587.1,587.1,0,0,1-43.75-58.67l-3.42,3.42C715.21-33.62,765.35,63,748.6,152.21c-.68,3.65-.41,4.56-4.09,5.89a45.48,45.48,0,0,1-10.94,2.37c-6.92.67-13.9.17-20.8-.4-15.41-1.28-30.8-2.68-46.2-4l-95-8.26-188-16.35L278.42,122.3c-17-1.48-34.09-2.79-51.1-4.5s-34-4.39-49.81-11.21v4.32c62.58-27.73,130.91-41.53,199.3-41.78A520.41,520.41,0,0,1,576,107.9a485.4,485.4,0,0,1,100.78,56.27v-4.32c-14,7.27-30.25,3.55-45,1q-24.24-4.22-48.61-7.48-48.11-6.48-96.6-9.3a1285.48,1285.48,0,0,0-194.55,3.43q-54.21,5.08-107.84,14.75c-2.74.49-2.15,5.22.66,4.91a421.15,421.15,0,0,0,154.2-48.76A427.43,427.43,0,0,0,465.21,14.48C483.42-7.73,500.35-32,512-58.34c6.08-13.79,10.61-28.29,12.13-43.33,1.39-13.71.81-29.84-5.89-42.24-12.38-22.87-43.41-18.55-60.05-3.49-10.25,9.27-17.06,21.73-22.79,34.12a284.41,284.41,0,0,0-15.49,41.92c-16.48,58.36-14.6,122,5.87,179.11,2.41,6.72,5.09,13.33,8,19.86,1.12,2.55,4.4.86,4.65-1.26,7.5-62.21,1.86-124.83-3.88-186.92l-4.66,1.26L507.16,95.62,510,92A1890.83,1890.83,0,0,0,301.76,34.3q-30.12-6.51-60.44-12a2.52,2.52,0,0,0-2.43,4.18,128.06,128.06,0,0,0,71.75,40.21,2.51,2.51,0,0,0,1.93-4.57,739.22,739.22,0,0,0-174-87.66c-2.65-.92-4.51,3.37-1.93,4.57a136.77,136.77,0,0,1,44.29,33V8.41a123.85,123.85,0,0,1-44.29,34.46c-2.92,1.35-.38,5.66,2.53,4.32Z"/><path class="cls-1" d="M120.17,21.21q5.85,4,11.44,8.3l-2.53-2a238,238,0,0,1,34.16,32.33q4.35,5,8.41,10.27l-2-2.53q3.13,4.08,6.1,8.27l4.49-17.1a121.08,121.08,0,0,1-12.1,6l3-1.26a144.11,144.11,0,0,1-36.49,9.74l3.33-.45c-18.6,2.48-37.42,1.81-56-.68l3.33.45C71.91,70.72,58.61,68,45.41,64.9c-12.84-3-25.68-6.18-38.39-9.71a160.2,160.2,0,0,1-19.43-6.56l3,1.26A83.32,83.32,0,0,1-25.5,41l-6.31,23.29A216.27,216.27,0,0,1,4.16,66L.84,65.6A216,216,0,0,1,36,73.38,12.5,12.5,0,0,0,50.11,55a13.43,13.43,0,0,0-7.47-5.75,228.22,228.22,0,0,0-58.32-10q-8.07-.33-16.13-.05A12.76,12.76,0,0,0-39.39,42a11.94,11.94,0,0,0-4.48,6.49,14.93,14.93,0,0,0,0,6.65c.75,3.27,3.16,5.6,5.75,7.47C-25.83,71.42-11,76.27,3.51,80.15c15,4,30,7.81,45.19,11.11a352.63,352.63,0,0,0,50.17,7.58,204.58,204.58,0,0,0,45.92-2A143.71,143.71,0,0,0,192.9,80.39a12.69,12.69,0,0,0,5.74-7.47c.71-3.12.66-6.92-1.26-9.63a248.63,248.63,0,0,0-47.26-50.76C144.5,8,138.74,3.68,132.79-.38c-2.57-1.75-6.72-2.06-9.63-1.26a12.74,12.74,0,0,0-7.47,5.75,12.63,12.63,0,0,0-1.26,9.63,13.93,13.93,0,0,0,5.74,7.47Z"/><path class="cls-1" d="M356.3,1.2c9.08,14.5,18.19,29,28,43a372.15,372.15,0,0,0,33.53,42.09,231.47,231.47,0,0,0,21,19.75c2.62,2.17,5.32,3.66,8.84,3.66a12.71,12.71,0,0,0,8.84-3.66,12.56,12.56,0,0,0,3.66-8.84c-.14-3.13-1.14-6.76-3.66-8.84a247.23,247.23,0,0,1-32.07-32.31q-4.14-5-8.08-10.08l1.95,2.53C406.8,33.67,396.46,18,386.41,2.13c-2.86-4.51-5.69-9-8.53-13.55a13.07,13.07,0,0,0-7.47-5.75,12.8,12.8,0,0,0-9.63,1.26A12.6,12.6,0,0,0,355-8.44,12.72,12.72,0,0,0,356.3,1.2Z"/><path class="cls-1" d="M465.41,112.7l2.86-2.86a9.29,9.29,0,0,0,2.58-4,11.3,11.3,0,0,0,0-9.64,9.29,9.29,0,0,0-2.58-4l-2.53-2a12.5,12.5,0,0,0-6.31-1.71l-3.32.45a12.44,12.44,0,0,0-5.52,3.21L447.73,95a9.29,9.29,0,0,0-2.58,4,11.27,11.27,0,0,0,0,9.63,9.38,9.38,0,0,0,2.58,4l2.53,2a12.5,12.5,0,0,0,6.31,1.71l3.32-.45a12.44,12.44,0,0,0,5.52-3.21Z"/><path class="cls-1" d="M597.53,83.06q32.9,9.51,64.82,22,9.06,3.54,18,7.32c2.76,1.17,7.17.18,9.63-1.26A12.5,12.5,0,0,0,694.49,94l-2-2.53A12.55,12.55,0,0,0,687,88.26Q655.48,75,622.8,64.6q-9.27-2.94-18.62-5.65a12.94,12.94,0,0,0-9.63,1.26,12.5,12.5,0,0,0-4.49,17.11,13.21,13.21,0,0,0,7.47,5.74Z"/><path class="cls-1" d="M659.52,23.45Q673.29,29,687,34.75l-3-1.26q40.6,17.13,80.27,36.4t78.21,40.62q21.66,12,42.94,24.61a13,13,0,0,0,9.63,1.26,12.74,12.74,0,0,0,7.47-5.75,12.58,12.58,0,0,0,1.26-9.63,13.11,13.11,0,0,0-5.74-7.47q-21.49-12.75-43.35-24.84T810.6,65.17Q788.39,53.74,765.83,43T720.42,22.16Q696.29,11.54,671.85,1.63L666.16-.66C663.35-1.79,659-.86,656.53.6a12.76,12.76,0,0,0-5.74,7.47,12.67,12.67,0,0,0,1.26,9.64l2,2.53a12.44,12.44,0,0,0,5.52,3.21Z"/><path class="cls-1" d="M986.37,30.74q-13.54,21.66-27.61,43t-29.06,42q-8.51,11.73-17.36,23.2l2-2.53c-7.73,10-15.5,20.29-25.56,28.1l2.53-2a56.4,56.4,0,0,1-12,7.13l3-1.26a46,46,0,0,1-11.63,3.25l3.33-.45a36.9,36.9,0,0,1-9.45,0l3.33.45a35.18,35.18,0,0,1-4.45-.94,12.94,12.94,0,0,0-9.63,1.26,12.51,12.51,0,0,0-4.49,17.11,13.09,13.09,0,0,0,7.47,5.74c15,4.21,31.68,0,44.33-8.67a96.72,96.72,0,0,0,16.76-14.73c4.49-4.94,8.6-10.22,12.69-15.5,18.05-23.23,35.05-47.23,51.27-71.78q13.37-20.2,26.17-40.79a12.87,12.87,0,0,0,1.26-9.64,12.51,12.51,0,0,0-22.85-3Z"/></svg>